<svg width="151" height="244" viewBox="0 0 151 244" fill="none" xmlns="http://www.w3.org/2000/svg">
<path d="M27.4683 237.658C27.4683 232.177 29.9118 226.981 34.137 223.485L55.495 205.816C61.0337 201.229 64.4477 197.781 64.4477 192.464C64.4477 186.704 60.4494 183.222 54.8383 183.222C50.5696 183.222 47.3294 185.231 46.016 188.934C45.1468 191.378 42.9014 193.054 40.3083 193.054H32.7849C28.7915 193.054 25.928 189.239 26.9903 185.39C30.1001 174.158 40.3807 167.519 54.8431 167.519C72.8547 167.519 84.3377 176.689 84.3377 190.702C84.3377 199.399 79.9724 206.806 62.8397 221.075L55.7847 226.947V227.387H74.8635C80.5374 227.387 85.1345 231.984 85.1345 237.658C85.1345 240.98 82.44 243.674 79.1177 243.674H33.4851C30.1629 243.674 27.4683 240.98 27.4683 237.658Z" fill="#363A68"/>
<path d="M21.0701 189.427V173.888C21.0701 170.938 18.675 168.543 15.7245 168.543C9.50981 168.543 4.00009 173.579 4.00009 179.794V238.054C4.00009 241.159 6.51591 243.675 9.62086 243.675H15.4445C18.5542 243.675 21.0749 241.154 21.0749 238.044V222.312V200.93V189.427H21.0701Z" fill="#363A68"/>
<path d="M107.719 225.519H107.724V168.544H107.719V225.519Z" fill="#363A68"/>
<path d="M117.855 168.543H101.9C95.6853 168.543 90.6488 173.579 90.6488 179.794V238.054C90.6488 241.159 93.1646 243.675 96.2696 243.675H102.093C105.203 243.675 107.724 241.154 107.724 238.044V222.312C107.724 221.79 108.144 221.37 108.665 221.37H117.125C134.258 221.37 145.741 211.283 145.741 195.101C145.736 179.108 134.548 168.543 117.855 168.543ZM115.942 205.522H114.233H112.977H109.037C108.308 205.522 107.719 204.933 107.719 204.204V196.492C107.719 196.478 107.724 196.458 107.724 196.444V189.427C107.724 186.892 110.075 184.835 112.973 184.835H115.937C124.113 184.835 129.014 188.65 129.014 195.106C129.019 201.524 124.113 205.522 115.942 205.522Z" fill="#363A68"/>
<path d="M128.818 22.0768C114.565 7.84004 95.6159 0 75.4626 0C55.3094 0 36.3603 7.84004 22.1074 22.0768C7.8545 36.3135 0.00556507 55.2411 0.00556507 75.3715C0.00556507 92.1122 5.44618 108 15.4626 121.067L3.00502 133.51C-1.00155 137.512 -1.00155 143.996 3.00502 147.998C7.01159 152.001 13.5031 152.001 17.5097 147.998L30.0001 135.522C43.0269 145.396 58.8343 150.743 75.4736 150.743C95.6268 150.743 114.576 142.903 128.829 128.666C143.082 114.43 150.931 95.5019 150.931 75.3715C150.92 55.2411 143.071 36.3135 128.818 22.0768ZM90.6898 115.501C90.6788 115.512 90.6788 115.512 90.6679 115.523C82.611 123.56 69.5185 123.56 61.4615 115.523C53.4046 107.475 53.4046 94.3976 61.4615 86.3498C65.49 82.3259 70.7774 80.3139 76.0647 80.3139C81.3521 80.3139 86.6394 82.3259 90.6679 86.3498C98.7139 94.3866 98.7248 107.453 90.6898 115.501ZM48.3033 73.1956C35.2984 86.1857 33.3499 106.097 42.4358 121.176C39.8633 119.591 37.4659 117.699 35.2765 115.512C20.0056 100.258 20.0056 75.4371 35.2765 60.1835C42.9175 52.5512 52.9448 48.746 62.9722 48.746C72.9996 48.746 83.0379 52.5622 90.6679 60.1835C92.8573 62.3704 94.7401 64.776 96.3274 67.3347C81.2426 58.259 61.3083 60.2054 48.3033 73.1956ZM115.66 115.523C114.291 116.89 112.868 118.169 111.401 119.372C117.488 110.078 120.772 99.2197 120.772 87.8478C120.772 72.4301 114.762 57.931 103.848 47.0293C84.1873 27.4128 53.7987 24.9088 31.4013 39.5064C32.6164 38.0302 33.8972 36.5978 35.2765 35.231C46.0154 24.5042 60.2902 18.5996 75.4626 18.5996C90.6351 18.5996 104.921 24.5042 115.66 35.231C126.399 45.9577 132.31 60.2054 132.31 75.3715C132.31 90.5377 126.388 104.796 115.66 115.523Z" fill="#526BCE"/>
</svg>
